<svg width="170" height="50" viewBox="0 0 170 50" fill="none" xmlns="http://www.w3.org/2000/svg">
<g id="Group">
<path id="Vector" fill-rule="evenodd" clip-rule="evenodd" d="M5.72391 0H164.276C167.437 0 170 2.56268 170 5.72391V44.2761C170 47.4373 167.437 50 164.276 50H5.72391C2.56268 50 0 47.4373 0 44.2761L0 5.72391C0 2.56268 2.56268 0 5.72391 0Z" fill="white"/>
<g id="Group_2">
<g id="Group_3">
<path id="Vector_2" fill-rule="evenodd" clip-rule="evenodd" d="M123.47 22.3867L129.951 22.3867C129.951 22.3867 133.683 23.0177 133.683 27.2765C133.683 31.5352 129.951 32.1662 129.951 32.1662H123.47V22.3867ZM124.728 24.7523V30.0004H129.128C129.128 30.0004 131.13 30.0004 131.13 27.3763C131.13 24.7523 129.128 24.7523 129.128 24.7523H124.728Z" fill="black"/>
<path id="Vector_3" d="M125.185 22.3867H122.898V38.2958H125.185V22.3867Z" fill="black"/>
</g>
<path id="y" d="M137.303 22.3867H135.017V38.2958H137.303V22.3867Z" fill="black"/>
<path id="a" fill-rule="evenodd" clip-rule="evenodd" d="M145.778 37.1582C145.148 37.6747 144.141 38.1608 142.551 38.2595C138.908 38.4857 138.906 35.1813 138.906 34.9584C138.906 34.7356 138.726 32.0408 141.624 31.6124C143.676 31.3091 145.114 31.8145 145.778 32.1354V31.6679C145.615 31.0489 145.11 29.9114 143.594 29.9114C141.512 29.9114 141.052 31.0302 141.052 31.0302L139.148 29.9114C139.148 29.9114 140.214 27.7275 143.411 27.7275C147.388 27.7275 148.065 30.4536 148.065 31.3717C148.065 31.3762 148.065 31.3806 148.064 31.3851V38.2906H145.778V37.1582ZM145.615 33.7506C145.615 33.7506 141.21 32.5705 141.056 35.0302C140.903 37.4899 145.282 36.3088 145.674 34.5651C145.674 34.0107 145.615 33.7506 145.615 33.7506Z" fill="black"/>
<path id="y_2" fill-rule="evenodd" clip-rule="evenodd" d="M152.355 37.692L148.278 28.0684H150.565L153.498 34.9931L156.408 28.1234H158.694L152.508 42.7274H150.222L152.355 37.692Z" fill="black"/>
<path id="e" fill-rule="evenodd" clip-rule="evenodd" d="M117.78 31.7873L110.548 34.7579C110.548 34.7579 111.015 36.4009 113.189 36.412C114.892 36.4206 115.853 34.912 115.853 34.912L117.688 36.1471C117.688 36.1471 116.207 38.5271 113.175 38.5271C109.449 38.5271 107.808 35.2885 107.808 33.1853C107.808 31.1589 109.11 27.7275 112.944 27.7275C116.777 27.7275 117.78 31.7873 117.78 31.7873ZM115.028 30.9457C115.028 30.9457 114.118 29.5698 112.723 29.8236C109.771 30.3603 110.143 32.9277 110.143 32.9277L115.028 30.9457Z" fill="black"/>
<path id="i" d="M106.797 22.3867H104.378V38.2624H106.797V22.3867Z" fill="black"/>
<path id="g" fill-rule="evenodd" clip-rule="evenodd" d="M100.507 28.0726L102.743 28.0918V38.1088C102.743 40.6682 101.21 43.3698 97.601 43.3698C93.9921 43.3698 92.8265 40.1914 92.8265 40.1914L94.8801 39.3329C94.8801 39.3329 95.5065 41.2918 97.7078 41.2918C100.215 41.2917 100.507 39.0249 100.507 38.2489V37.1618C100.507 37.1618 99.6398 38.5112 97.4854 38.5112C95.1496 38.5112 92.3739 36.522 92.3739 33.1307C92.3739 29.7395 94.9876 27.7998 97.5125 27.7292C99.5348 27.6727 100.507 29.0633 100.507 29.0633V28.0726ZM97.6764 36.4756C99.307 36.4756 100.629 34.9908 100.629 33.1593C100.629 31.3278 99.307 29.8431 97.6764 29.8431C96.0457 29.8431 94.7238 31.3278 94.7238 33.1593C94.7238 34.9908 96.0457 36.4756 97.6764 36.4756Z" fill="black"/>
<path id="o" fill-rule="evenodd" clip-rule="evenodd" d="M85.9269 38.523C82.921 38.523 80.4842 36.1063 80.4842 33.1253C80.4842 30.1442 82.921 27.7275 85.9269 27.7275C88.9328 27.7275 91.3695 30.1442 91.3695 33.1253C91.3695 36.1063 88.9328 38.523 85.9269 38.523ZM85.8913 36.4062C87.5809 36.4062 88.9506 34.9373 88.9506 33.1253C88.9506 31.3132 87.5809 29.8443 85.8913 29.8443C84.2017 29.8443 82.832 31.3132 82.832 33.1253C82.832 34.9373 84.2017 36.4062 85.8913 36.4062Z" fill="black"/>
<path id="o_2" fill-rule="evenodd" clip-rule="evenodd" d="M74.1515 38.523C71.1456 38.523 68.7088 36.1063 68.7088 33.1253C68.7088 30.1442 71.1456 27.7275 74.1515 27.7275C77.1574 27.7275 79.5941 30.1442 79.5941 33.1253C79.5941 36.1063 77.1574 38.523 74.1515 38.523ZM74.1159 36.4062C75.8055 36.4062 77.1752 34.9373 77.1752 33.1253C77.1752 31.3132 75.8055 29.8443 74.1159 29.8443C72.4263 29.8443 71.0566 31.3132 71.0566 33.1253C71.0566 34.9373 72.4263 36.4062 74.1159 36.4062Z" fill="black"/>
<g id="Group_4">
<path id="Vector_4" fill-rule="evenodd" clip-rule="evenodd" d="M65.7845 29.4387H67.8835C67.8837 29.4666 67.8839 29.4946 67.8839 29.5226C68.6734 35.2723 64.725 38.583 59.991 38.5407C55.3348 38.5341 51.5602 34.7973 51.5602 30.1795C51.5602 25.5618 55.3348 21.8184 59.991 21.8184C62.4248 21.8184 64.4708 22.6617 65.8694 24.1261L64.2251 25.7569C63.1995 24.7169 61.7428 24.1468 60.0621 24.1468C56.7026 24.1468 53.9791 26.8477 53.9791 30.1795C53.9791 33.5113 56.7026 36.2123 60.0621 36.2123C62.9769 36.2123 65.1582 34.7624 65.6815 31.6966H60.0977V29.4387H65.7845Z" fill="black"/>
</g>
</g>
<g id="Group_5">
<path id="yellow" fill-rule="evenodd" clip-rule="evenodd" d="M37.7266 28.0279L17.9676 39.3346C16.2392 40.3236 14.0363 39.7243 13.0472 37.9959C12.7352 37.4506 12.5711 36.8333 12.5711 36.2051V13.592C12.5711 11.6007 14.1854 9.98633 16.1768 9.98633C16.805 9.98633 17.4223 10.1505 17.9676 10.4625L37.7266 21.7688C39.455 22.7578 40.0544 24.9607 39.0654 26.6892C38.7463 27.2467 38.2842 27.7089 37.7266 28.0279Z" fill="url(#paint0_linear_1_1085)"/>
<path id="blue" fill-rule="evenodd" clip-rule="evenodd" d="M12.4613 8.85205L28.4423 24.6402L12.2549 41.0523L12.4613 8.85205Z" fill="url(#paint1_linear_1_1085)"/>
<path id="green" fill-rule="evenodd" clip-rule="evenodd" d="M9.17499 5.60205L28.4404 24.645L34.1682 19.2136L9.17499 5.60205Z" fill="url(#paint2_linear_1_1085)"/>
<path id="red" fill-rule="evenodd" clip-rule="evenodd" d="M28.443 24.6411L37.2117 33.4264L11.016 42.2117L28.443 24.6411Z" fill="url(#paint3_linear_1_1085)"/>
</g>
</g>
<defs>
<linearGradient id="paint0_linear_1_1085" x1="39.5421" y1="1501.24" x2="-1009.97" y2="1501.24" gradientUnits="userSpaceOnUse">
<stop stop-color="#FBDA09"/>
<stop offset="1" stop-color="#FFBC00"/>
</linearGradient>
<linearGradient id="paint1_linear_1_1085" x1="12.2549" y1="1891.78" x2="1198.51" y2="1724.92" gradientUnits="userSpaceOnUse">
<stop stop-color="#01E2FF"/>
<stop offset="1" stop-color="#01C4FF"/>
</linearGradient>
<linearGradient id="paint2_linear_1_1085" x1="516.065" y1="388.403" x2="1682.74" y2="1919.15" gradientUnits="userSpaceOnUse">
<stop stop-color="#28D781"/>
<stop offset="1" stop-color="#02F076"/>
</linearGradient>
<linearGradient id="paint3_linear_1_1085" x1="1962.29" y1="330.899" x2="966.702" y2="2031.31" gradientUnits="userSpaceOnUse">
<stop stop-color="#F2414E"/>
<stop offset="1" stop-color="#E02554"/>
</linearGradient>
</defs>
</svg>
