<svg width="170" height="50" viewBox="0 0 170 50" fill="none" xmlns="http://www.w3.org/2000/svg">
<g id="Group">
<path id="backfround-copy" d="M165.308 0H4.69212C2.10073 0 0 2.10073 0 4.69212V45.3079C0 47.8993 2.10073 50 4.69212 50H165.308C167.899 50 170 47.8993 170 45.3079V4.69212C170 2.10073 167.899 0 165.308 0Z" fill="white"/>
<path id="Vector" fill-rule="evenodd" clip-rule="evenodd" d="M65.2523 39.167H68.1095L61.8548 21.6586H58.9615L52.7068 39.167H55.468L57.0647 34.5199H63.6676L65.2523 39.167ZM60.2701 24.8375H60.4742L62.9833 32.2389H57.749L60.2701 24.8375ZM75.6856 25.7354C73.9088 25.7354 72.3721 26.6332 71.5798 28.1378H71.3877V25.9538H68.9026V43.4501H71.4837V37.165H71.6878C72.3721 38.5604 73.8488 39.3854 75.7096 39.3854C79.011 39.3854 81.1119 36.7525 81.1119 32.5543C81.1119 28.3562 79.011 25.7354 75.6856 25.7354ZM74.9532 37.0437C72.7923 37.0437 71.4357 35.3208 71.4357 32.5665C71.4357 29.8001 72.7923 28.0771 74.9652 28.0771C77.1502 28.0771 78.4588 29.7637 78.4588 32.5543C78.4588 35.3572 77.1502 37.0437 74.9532 37.0437ZM89.0722 25.7354C87.2954 25.7354 85.7587 26.6332 84.9664 28.1378H84.7743V25.9538H82.2892V43.4501H84.8703V37.165H85.0744C85.7587 38.5604 87.2354 39.3854 89.0962 39.3854C92.3976 39.3854 94.4985 36.7525 94.4985 32.5543C94.4985 28.3562 92.3976 25.7354 89.0722 25.7354ZM88.3398 37.0437C86.1789 37.0437 84.8223 35.3208 84.8223 32.5665C84.8223 29.8001 86.1789 28.0771 88.3518 28.0771C90.5368 28.0771 91.8454 29.7637 91.8454 32.5543C91.8454 35.3572 90.5368 37.0437 88.3398 37.0437ZM99.9624 34.4593C100.154 37.5897 102.736 39.5917 106.577 39.5917C110.683 39.5917 113.252 37.4926 113.252 34.1438C113.252 31.5109 111.788 30.0549 108.234 29.2177L106.325 28.7445C104.068 28.2106 103.156 27.4947 103.156 26.245C103.156 24.6676 104.572 23.6363 106.697 23.6363C108.714 23.6363 110.107 24.6434 110.359 26.2571H112.976C112.82 23.3087 110.251 21.2339 106.733 21.2339C102.952 21.2339 100.431 23.3087 100.431 26.427C100.431 28.9993 101.859 30.5281 104.993 31.2682L107.226 31.8142C109.519 32.3602 110.527 33.161 110.527 34.4957C110.527 36.0488 108.942 37.1772 106.781 37.1772C104.464 37.1772 102.856 36.1216 102.628 34.4593H99.9624ZM115.474 22.7506V26.0144H113.325V28.2106H115.474V35.6726C115.474 38.2206 116.614 39.2398 119.484 39.2398C119.988 39.2398 120.456 39.1792 120.864 39.1064V36.9345C120.504 36.9709 120.3 36.9952 119.904 36.9952C118.619 36.9952 118.055 36.3885 118.055 35.0053V28.2106H120.984V26.0144H118.055V22.7506H115.474ZM127.384 37.1044C125.139 37.1044 123.878 35.4421 123.878 32.5543C123.878 29.6909 125.139 28.0165 127.384 28.0165C129.617 28.0165 130.889 29.6909 130.889 32.5543C130.889 35.43 129.617 37.1044 127.384 37.1044ZM127.384 39.4218C131.202 39.4218 133.543 36.8374 133.543 32.5543C133.543 28.2955 131.19 25.699 127.384 25.699C123.566 25.699 121.213 28.2955 121.213 32.5543C121.213 36.8374 123.554 39.4218 127.384 39.4218ZM134.72 39.167H137.301V31.3653C137.301 29.5089 138.682 28.2591 140.626 28.2591C141.059 28.2591 141.851 28.3441 142.055 28.4169V25.8446C141.779 25.7718 141.287 25.7354 140.915 25.7354C139.21 25.7354 137.769 26.6818 137.397 27.9801H137.205V25.9538H134.72V39.167ZM147.866 27.9194C149.775 27.9194 151.024 29.2662 151.084 31.341H144.481C144.625 29.2783 145.957 27.9194 147.866 27.9194ZM151.072 35.5998C150.592 36.6312 149.523 37.2014 147.962 37.2014C145.897 37.2014 144.565 35.7333 144.481 33.4158V33.2702H153.713V32.3602C153.713 28.2106 151.516 25.699 147.878 25.699C144.193 25.699 141.852 28.3805 141.852 32.6029C141.852 36.8253 144.145 39.4218 147.89 39.4218C150.88 39.4218 152.969 37.9658 153.557 35.5998H151.072Z" fill="black"/>
<g id="Group_2">
<path id="Vector_2" fill-rule="evenodd" clip-rule="evenodd" d="M37.8567 25.743C37.9009 30.8154 42.2481 32.4922 42.3001 32.5093C42.2741 32.6275 41.6193 34.932 39.9888 37.2666C38.6272 39.3256 37.2006 41.3386 34.9348 41.3727C32.7339 41.4252 31.9933 40.0648 29.4689 40.0648C26.9211 40.0648 26.1325 41.3386 24.0213 41.4252C21.8633 41.5053 20.2145 39.2297 18.8036 37.1892C15.983 33.0254 13.7873 25.4554 16.7313 20.3041C18.1579 17.7777 20.7589 16.1508 23.5393 16.1075C25.6999 16.0628 27.7046 17.5821 29.0324 17.5821C30.3342 17.5821 32.8131 15.7648 35.3687 16.0366C36.438 16.0681 39.4808 16.4633 41.4439 19.3561C41.2854 19.4519 37.8191 21.5109 37.8567 25.743ZM33.6992 13.2975C32.5143 14.7103 30.6187 15.791 28.7725 15.6518C28.5309 13.7452 29.4663 11.7178 30.5135 10.4809C31.6971 9.07718 33.7525 8.00176 35.396 7.92822C35.6117 9.90968 34.8347 11.8622 33.6992 13.2975Z" fill="black"/>
</g>
</g>
</svg>
